<svg viewBox="0 0 457.5019505707986 91.72087173261298" preserveAspectRatio="xMidYMid meet" class="css-8aabad" id="fegbffcb"><defs id="SvgjsDefs1106"></defs><g id="SvgjsG1107" featurekey="uwAHB0-0" transform="matrix(1.1237143454770868,0,0,1.1237143454770868,51.80886285809374,68.84204697283867)" fill="#fff"><path d="M5.98 5.48 q2.46 0 3.86 1.78 l-1.14 0.82 q-1.04 -1.4 -2.76 -1.4 q-1.4 0 -2.27 0.72 t-0.91 1.96 q0 1.08 0.66 1.75 t2.3 1.13 q2.16 0.64 2.88 1.13 t1.09 1.21 t0.37 1.8 q0 1.72 -1.23 2.83 t-3.17 1.15 q-3.06 0 -4.6 -2.14 l1.26 -0.84 q1.06 1.76 3.24 1.78 q1.42 0 2.3 -0.79 t0.88 -1.99 q0 -0.7 -0.25 -1.15 t-0.76 -0.78 t-1.3 -0.6 t-1.85 -0.63 q-1.6 -0.52 -2.37 -1.46 t-0.77 -2.4 q0 -1.72 1.29 -2.8 t3.25 -1.08 z M24.128 12.92 q0 2.7 1.66 4.45 t4.34 1.79 q2.7 0 4.34 -1.77 t1.66 -4.47 q0 -2.74 -1.64 -4.47 t-4.38 -1.77 q-2.68 0 -4.32 1.76 t-1.66 4.48 z M30.128 5.48 q2.16 0 3.82 0.95 t2.57 2.66 t0.93 3.83 q0 3.26 -2.06 5.33 t-5.26 2.11 q-3.22 0 -5.24 -2.09 t-2.08 -5.35 q0.02 -3.26 2.04 -5.32 t5.28 -2.12 z M59.556 5.84 l0 1.2 l-7.16 0 l0 5.04 l6.66 0 l0 1.2 l-6.66 0 l0 6.72 l-1.32 0 l0 -14.16 l8.48 0 z M82.16399999999999 5.84 l0 1.2 l-4.84 0 l0 12.96 l-1.32 0 l0 -12.96 l-4.84 0 l0 -1.2 l11 0 z M94.53199999999998 5.84 l3.52 12.54 l0.04 0 l3.58 -12.54 l1.68 0 l3.58 12.54 l0.04 0 l3.52 -12.54 l1.36 0 l-4.12 14.14 l-0.02 0.02 l-1.6 0 l-3.58 -12.6 l-0.04 0 l-3.58 12.6 l-1.62 0 l-4.12 -14.16 l1.36 0 z M126.21999999999998 15.04 l6.5 0 l-3.2 -7.76 z M130.26 5.84 l5.96 14.16 l-1.48 0 l-1.54 -3.76 l-7.5 0 l-1.6 3.76 l-1.38 0 l6.18 -14.16 l1.36 0 z M153.148 12.08 q1.54 0 2.38 -0.69 t0.84 -1.83 t-0.82 -1.82 t-2.44 -0.7 l-2.86 0 l0 5.04 l2.9 0 z M152.748 5.84 q4.9 0 4.94 3.72 q0 3.14 -3.62 3.64 l4.12 6.8 l-1.5 0 l-3.98 -6.72 l-2.46 0 l0 6.72 l-1.32 0 l0 -14.16 l3.82 0 z M180.11599999999999 5.84 l0 1.2 l-7.34 0 l0 5.04 l6.88 0 l0 1.2 l-6.88 0 l0 5.52 l7.66 0 l0 1.2 l-8.98 0 l0 -14.16 l8.66 0 z M214.07199999999997 12.08 q1.54 0 2.38 -0.69 t0.84 -1.83 t-0.82 -1.82 t-2.44 -0.7 l-2.86 0 l0 5.04 l2.9 0 z M213.67199999999997 5.84 q4.9 0 4.94 3.72 q0 3.14 -3.62 3.64 l4.12 6.8 l-1.5 0 l-3.98 -6.72 l-2.46 0 l0 6.72 l-1.32 0 l0 -14.16 l3.82 0 z M232.77999999999997 12.92 q0 2.7 1.66 4.45 t4.34 1.79 q2.7 0 4.34 -1.77 t1.66 -4.47 q0 -2.74 -1.64 -4.47 t-4.38 -1.77 q-2.68 0 -4.32 1.76 t-1.66 4.48 z M238.77999999999997 5.48 q2.16 0 3.82 0.95 t2.57 2.66 t0.93 3.83 q0 3.26 -2.06 5.33 t-5.26 2.11 q-3.22 0 -5.24 -2.09 t-2.08 -5.35 q0.02 -3.26 2.04 -5.32 t5.28 -2.12 z M266.12799999999993 5.48 q3.14 0 4.88 2.22 l-1.08 0.9 q-0.6 -0.9 -1.6 -1.41 t-2.2 -0.51 q-2.64 0 -4.3 1.74 t-1.7 4.5 q0 2.74 1.67 4.47 t4.33 1.77 q1.14 0 2.32 -0.57 t1.86 -1.63 l1.08 0.82 q-1.88 2.58 -5.26 2.58 q-3.28 -0.02 -5.27 -2.12 t-2.05 -5.32 q0 -3.26 2.05 -5.33 t5.27 -2.11 z M285.79599999999994 5.84 l0 6.24 l0.12 0 l6.86 -6.24 l1.82 0 l-7.16 6.48 l7.56 7.68 l-1.9 0 l-7.18 -7.32 l-0.12 0 l0 7.32 l-1.32 0 l0 -14.16 l1.32 0 z M311.40399999999994 5.48 q2.46 0 3.86 1.78 l-1.14 0.82 q-1.04 -1.4 -2.76 -1.4 q-1.4 0 -2.27 0.72 t-0.91 1.96 q0 1.08 0.66 1.75 t2.3 1.13 q2.16 0.64 2.88 1.13 t1.09 1.21 t0.37 1.8 q0 1.72 -1.23 2.83 t-3.17 1.15 q-3.06 0 -4.6 -2.14 l1.26 -0.84 q1.06 1.76 3.24 1.78 q1.42 0 2.3 -0.79 t0.88 -1.99 q0 -0.7 -0.25 -1.15 t-0.76 -0.78 t-1.3 -0.6 t-1.85 -0.63 q-1.6 -0.52 -2.37 -1.46 t-0.77 -2.4 q0 -1.72 1.29 -2.8 t3.25 -1.08 z"></path></g><g id="SvgjsG1108" featurekey="nameLeftFeature-0" transform="matrix(2.1659159526231884,0,0,2.1659159526231884,-0.21659138870447728,3.3436933478476405)" fill="#fff"><path d="M7.48 20.36 l-7.38 -14.96 l3.48 0 l3.9 8.08 l3.92 -8.08 l3.5 0 z M20.52 4.92 l8.02 15.08 l-3.46 0 l-1.16 -2.24 l-6.82 0 l-1.12 2.24 l-3.48 0 z M22.4 15.059999999999999 l-1.88 -3.82 l-1.86 3.82 l3.74 0 z M32.540000000000006 16.87 q1.42 0.57 2.6 0.57 q1.24 0 1.97 -0.48 t0.73 -1.14 q0 -0.54 -0.43 -0.88 t-1.09 -0.51 t-1.74 -0.37 q-1.44 -0.24 -2.64 -0.62 t-2.18 -1.32 t-0.98 -2.54 q0 -2.36 1.73 -3.39 t4.07 -1.03 q1.8 0 3.13 0.49 t2.65 1.47 l-1.76 2.4 q-0.98 -0.7 -2.04 -1.1 t-2.1 -0.4 q-0.92 0 -1.72 0.33 t-0.8 1.11 q0 0.48 0.41 0.77 t0.9 0.42 t1.59 0.37 l0.72 0.14 q1.66 0.32 2.75 0.71 t1.89 1.31 t0.8 2.56 q0 2.22 -1.57 3.38 t-4.25 1.16 q-3.92 0 -6.6 -2.28 l1.68 -2.42 q0.86 0.72 2.28 1.29 z M43.74000000000001 20 l0 -14.62 l3.16 0 l0 14.62 l-3.16 0 z M61.28000000000001 20 l-10.84 0 l0 -14.62 l3.18 0 l0 11.88 l7.66 0 l0 2.74 z M67.94 14.46 l0 5.54 l-3.16 0 l0 -5.54 l-5.76 -9.06 l3.7 0 l3.64 5.9 l3.68 -5.9 l3.7 0 z"></path></g><g id="SvgjsG1109" featurekey="inlineSymbolFeature-0" transform="matrix(3.2179586289332804,0,0,3.2179586289332804,179,-21.389768944229132)" fill="#fff"><g xmlns="http://www.w3.org/2000/svg" display="none"><g display="inline"><path d="M32,6.192v-1.59c0-0.988-0.809-1.797-1.797-1.797H7.188H1.797C0.809,2.805,0,3.614,0,4.602v1.59H32z"></path><path opacity="0.25" fill="#fff" d="M9.19,2.805H7.188H1.797C0.809,2.805,0,3.614,0,4.602v1.59h7.243L9.19,2.805z"></path><g><g><rect x="0.5" y="6.695" fill="#fff" width="31" height="22"></rect><path fill="#fff" d="M31,7.195v21H1v-21H31 M32,6.195H0v23h32V6.195L32,6.195z"></path></g><path fill="#fff" d="M30.5,7.695v20h-29v-20H30.5 M30.75,7.445H1.25v20.5h29.5V7.445L30.75,7.445z"></path></g><circle fill="#fff" cx="2.533" cy="4.498" r="0.512"></circle><circle fill="#fff" cx="4.068" cy="4.498" r="0.512"></circle><circle fill="#fff" cx="5.603" cy="4.498" r="0.512"></circle><path fill="#fff" d="M26.766,5.397H10.68c-0.494,0-0.899-0.404-0.899-0.899v0c0-0.494,0.404-0.899,0.899-0.899h16.086    c0.494,0,0.899,0.404,0.899,0.899v0C27.664,4.993,27.26,5.397,26.766,5.397z"></path><g><path d="M11.286,4.089l0.123,0.473c0.027,0.104,0.052,0.2,0.069,0.297h0.006c0.021-0.095,0.052-0.194,0.083-0.295l0.152-0.475     h0.143l0.144,0.466c0.035,0.111,0.062,0.209,0.083,0.304h0.006c0.015-0.095,0.041-0.192,0.071-0.302l0.132-0.468h0.167     l-0.3,0.931h-0.154l-0.143-0.444c-0.033-0.104-0.06-0.196-0.083-0.306h-0.004c-0.023,0.111-0.052,0.208-0.084,0.308l-0.15,0.442     h-0.154l-0.281-0.931H11.286z"></path><path d="M12.722,4.089l0.123,0.473c0.027,0.104,0.052,0.2,0.069,0.297h0.006c0.021-0.095,0.052-0.194,0.083-0.295l0.152-0.475     h0.143l0.144,0.466c0.035,0.111,0.062,0.209,0.083,0.304h0.006c0.015-0.095,0.041-0.192,0.071-0.302l0.132-0.468H13.9l-0.3,0.931     h-0.154l-0.143-0.444c-0.033-0.104-0.06-0.196-0.083-0.306h-0.004c-0.023,0.111-0.052,0.208-0.084,0.308l-0.15,0.442H12.83     l-0.281-0.931H12.722z"></path><path d="M14.157,4.089l0.123,0.473c0.027,0.104,0.052,0.2,0.069,0.297h0.006c0.021-0.095,0.052-0.194,0.083-0.295l0.152-0.475     h0.143l0.144,0.466c0.035,0.111,0.062,0.209,0.083,0.304h0.006c0.015-0.095,0.041-0.192,0.071-0.302l0.132-0.468h0.167     l-0.3,0.931h-0.154L14.74,4.575c-0.033-0.104-0.06-0.196-0.083-0.306h-0.004c-0.023,0.111-0.052,0.208-0.084,0.308l-0.15,0.442     h-0.154l-0.281-0.931H14.157z"></path><path d="M15.387,4.92c0-0.071,0.048-0.121,0.115-0.121s0.113,0.05,0.113,0.121c0,0.069-0.044,0.121-0.115,0.121     C15.433,5.041,15.387,4.989,15.387,4.92z"></path></g><g><g><rect x="28.833" y="4.396" fill="#fff" width="1.438" height="0.25"></rect></g><g><polygon fill="#fff" points="29.662,5.267 29.484,5.09 30.054,4.521 29.484,3.953 29.662,3.776 30.407,4.521     "></polygon></g></g><polygon fill="#fff" points="26.864,4.208 26.385,4.827 25.907,4.208   "></polygon></g></g><g xmlns="http://www.w3.org/2000/svg" display="none"><rect x="8.011" y="9.891" display="inline" fill="#fff" width="15.978" height="13.315"></rect><rect x="8.011" y="24.612" display="inline" fill="#fff" width="15.978" height="0.888"></rect><g display="inline"><path fill="#fff" d="M16,12.024c1.081,0,1.961,0.88,1.961,1.961c0,1.081-0.88,1.961-1.961,1.961    c-1.081,0-1.961-0.88-1.961-1.961C14.039,12.904,14.919,12.024,16,12.024"></path><path fill="#fff" d="M18.167,17.299L16,18.933l-2.167-1.634c-2.668,0.8-2.634,3.501-2.634,3.501H16h0h4.802    C20.802,20.8,20.835,18.099,18.167,17.299z"></path></g></g><g xmlns="http://www.w3.org/2000/svg" display="none"><g display="inline"><rect x="10.549" y="11.42" fill="#fff" width="8.114" height="1.014"></rect><rect x="13.338" y="14.145" width="8.114" height="1.014"></rect><rect x="10.549" y="16.871" fill="#fff" width="8.114" height="1.014"></rect><rect x="13.338" y="19.597" width="8.114" height="1.014"></rect><rect x="10.549" y="22.322" fill="#fff" width="8.114" height="1.014"></rect></g></g><g xmlns="http://www.w3.org/2000/svg" display="none"><g display="inline"><path fill="#fff" d="M9.098,20.459l11.021-8.778l-0.473-0.602l2.076-0.301l-0.778,1.953l-0.473-0.602L9.506,20.93    C9.506,20.93,9.114,20.465,9.098,20.459z"></path><rect x="11.763" y="22.198" width="1.453" height="2.415"></rect><rect x="9.341" y="23.406" fill="#fff" width="1.453" height="1.207"></rect><rect x="14.185" y="20.559" fill="#fff" width="1.453" height="4.054"></rect><rect x="16.606" y="18.431" width="1.453" height="6.182"></rect><rect x="19.028" y="16.506" fill="#fff" width="1.453" height="8.107"></rect><rect x="21.449" y="13.912" width="1.453" height="10.715"></rect></g></g><g xmlns="http://www.w3.org/2000/svg" display="none"><g display="inline"><rect x="6.802" y="22.57" fill="#fff" width="19.074" height="0.7"></rect></g><g display="inline"><path fill="#fff" d="M7.382,17.126l5.926-3.052v0.881l-4.993,2.503v0.025l4.993,2.504v0.881l-5.926-3.053V17.126z"></path><path fill="#fff" d="M14.135,21.379l3.563-9.259h0.868l-3.576,9.259H14.135z"></path><path fill="#fff" d="M25.295,17.828l-5.926,3.04v-0.881l5.032-2.504v-0.025l-5.032-2.503v-0.881l5.926,3.04V17.828z"></path></g></g><g xmlns="http://www.w3.org/2000/svg" display="none"><rect x="-135.031" y="-11" display="inline" fill="#fff" width="453.5" height="224.5"></rect></g><g xmlns="http://www.w3.org/2000/svg" display="none"><g display="inline"><rect y="24.179" fill="#fff" width="32" height="1.174"></rect><path fill="#fff" d="M0.974,15.046l9.942-5.121v1.479l-8.377,4.199v0.043l8.377,4.201v1.478l-9.942-5.122V15.046z"></path><path fill="#fff" d="M12.303,22.181l5.978-15.534h1.457l-6,15.534H12.303z"></path><path fill="#fff" d="M31.026,16.224l-9.942,5.1v-1.478l8.443-4.201v-0.043l-8.443-4.199V9.925l9.942,5.099V16.224z"></path></g></g><g xmlns="http://www.w3.org/2000/svg"><g><rect y="24.179" width="32" height="1.174"></rect><g><path d="M0.974,15.046l9.942-5.121v1.479l-8.377,4.199v0.043l8.377,4.201v1.478l-9.942-5.122V15.046z"></path><path d="M12.303,22.181l5.978-15.534h1.457l-6,15.534H12.303z"></path><path d="M31.026,16.224l-9.942,5.1v-1.478l8.443-4.201v-0.043l-8.443-4.199V9.925l9.942,5.099V16.224z"></path></g></g></g><g xmlns="http://www.w3.org/2000/svg" display="none"><g display="inline"><circle cx="2.533" cy="4.842" r="0.512"></circle><circle cx="4.068" cy="4.842" r="0.512"></circle><circle cx="5.603" cy="4.842" r="0.512"></circle><polygon points="29.055,4.296 29.5,4.74 28.404,4.74 28.404,4.99 29.5,4.99 29.055,5.434 29.233,5.611 29.978,4.865 29.233,4.119       "></polygon><path d="M29.893,2.63H2.108C0.946,2.63,0,3.593,0,4.777V6.37v0.074V29.37h32V6.444V6.37V4.777C32,3.593,31.055,2.63,29.893,2.63z     M31.3,28.67H0.7V7.07h30.6V28.67z M0.7,6.37V4.777c0-0.798,0.631-1.447,1.408-1.447h27.785c0.776,0,1.408,0.649,1.408,1.447V6.37    H0.7z"></path><path d="M26.337,3.943H10.251c-0.494,0-0.898,0.404-0.898,0.898c0,0.494,0.404,0.899,0.898,0.899h16.086    c0.494,0,0.898-0.404,0.898-0.899C27.235,4.348,26.831,3.943,26.337,3.943z M11.736,5.363h-0.154L11.44,4.918    c-0.033-0.104-0.06-0.196-0.083-0.306h-0.004c-0.023,0.111-0.052,0.208-0.084,0.308l-0.15,0.442h-0.154l-0.281-0.931h0.173    l0.123,0.473c0.027,0.104,0.052,0.2,0.069,0.297h0.006c0.021-0.095,0.052-0.194,0.083-0.295l0.152-0.475h0.143l0.144,0.466    c0.035,0.111,0.062,0.209,0.083,0.304h0.006c0.015-0.095,0.041-0.192,0.071-0.302l0.132-0.468h0.167L11.736,5.363z M13.172,5.363    h-0.154l-0.143-0.444c-0.033-0.104-0.06-0.196-0.083-0.306h-0.004c-0.023,0.111-0.052,0.208-0.084,0.308l-0.15,0.442h-0.154    L12.12,4.432h0.173l0.123,0.473c0.027,0.104,0.052,0.2,0.069,0.297h0.006c0.021-0.095,0.052-0.194,0.083-0.295l0.152-0.475h0.143    l0.144,0.466c0.035,0.111,0.062,0.209,0.083,0.304H13.1c0.015-0.095,0.041-0.192,0.071-0.302l0.132-0.468h0.167L13.172,5.363z     M14.607,5.363h-0.154l-0.143-0.444c-0.033-0.104-0.06-0.196-0.083-0.306h-0.004c-0.023,0.111-0.052,0.208-0.084,0.308    l-0.15,0.442h-0.154l-0.281-0.931h0.173l0.123,0.473c0.027,0.104,0.052,0.2,0.069,0.297h0.006    c0.021-0.095,0.052-0.194,0.083-0.295l0.152-0.475h0.143l0.144,0.466c0.035,0.111,0.062,0.209,0.083,0.304h0.006    c0.015-0.095,0.041-0.192,0.071-0.302l0.132-0.468h0.167L14.607,5.363z M15.072,5.384c-0.067,0-0.113-0.052-0.113-0.121    c0-0.071,0.048-0.121,0.115-0.121s0.113,0.05,0.113,0.121C15.187,5.332,15.143,5.384,15.072,5.384z M25.957,5.17l-0.478-0.619    h0.957L25.957,5.17z"></path></g></g><g xmlns="http://www.w3.org/2000/svg" display="none"><g display="inline"><path fill="#fff" d="M7.382,17.126l5.926-3.052v0.881l-4.993,2.503v0.025l4.993,2.504v0.881l-5.926-3.053V17.126z"></path><path fill="#fff" d="M14.135,21.379l3.563-9.259h0.868l-3.576,9.259H14.135z"></path><path fill="#fff" d="M25.295,17.828l-5.926,3.04v-0.881l5.032-2.504v-0.025l-5.032-2.503v-0.881l5.926,3.04V17.828z"></path></g><g display="inline"><rect x="6.802" y="22.57" fill="#fff" width="19.074" height="0.7"></rect></g></g><g xmlns="http://www.w3.org/2000/svg" display="none"><rect x="10.549" y="11.42" display="inline" width="8.114" height="1.014"></rect><rect x="13.338" y="14.145" display="inline" width="8.114" height="1.014"></rect><rect x="10.549" y="16.871" display="inline" width="8.114" height="1.014"></rect><rect x="13.338" y="19.597" display="inline" width="8.114" height="1.014"></rect><rect x="10.549" y="22.322" display="inline" width="8.114" height="1.014"></rect></g><g xmlns="http://www.w3.org/2000/svg" display="none"><path display="inline" d="M9.098,20.459l11.021-8.778l-0.473-0.602l2.076-0.301l-0.778,1.953l-0.473-0.602L9.506,20.93   C9.506,20.93,9.114,20.465,9.098,20.459z"></path><rect x="11.763" y="22.198" display="inline" width="1.453" height="2.415"></rect><rect x="9.341" y="23.406" display="inline" width="1.453" height="1.207"></rect><rect x="14.185" y="20.559" display="inline" width="1.453" height="4.054"></rect><rect x="16.606" y="18.431" display="inline" width="1.453" height="6.182"></rect><rect x="19.028" y="16.506" display="inline" width="1.453" height="8.107"></rect><rect x="21.449" y="13.912" display="inline" width="1.453" height="10.715"></rect></g><g xmlns="http://www.w3.org/2000/svg" display="none"><g display="inline"><path fill="#fff" d="M31.301,4.777c0-0.798-0.632-1.447-1.408-1.447H2.108C1.332,3.33,0.7,3.979,0.7,4.777V6.37h30.601V4.777z"></path><rect x="0.7" y="7.07" fill="#fff" width="30.6" height="21.6"></rect><g><circle cx="2.533" cy="4.842" r="0.512"></circle></g><g><circle cx="4.068" cy="4.842" r="0.512"></circle></g><g><circle cx="5.603" cy="4.842" r="0.512"></circle></g><g><path fill="#fff" d="M26.337,5.74H10.251c-0.494,0-0.899-0.404-0.899-0.899v0c0-0.494,0.404-0.899,0.899-0.899h16.086     c0.494,0,0.899,0.404,0.899,0.899v0C27.235,5.336,26.831,5.74,26.337,5.74z"></path></g><g><g><path d="M10.857,4.432l0.123,0.473c0.027,0.104,0.052,0.2,0.069,0.297h0.006c0.021-0.095,0.052-0.194,0.083-0.295l0.152-0.475      h0.143l0.144,0.466c0.035,0.111,0.062,0.209,0.083,0.304h0.006c0.015-0.095,0.041-0.192,0.071-0.302l0.132-0.468h0.167      l-0.3,0.931h-0.154L11.44,4.918c-0.033-0.104-0.06-0.196-0.083-0.306h-0.004c-0.023,0.111-0.052,0.208-0.084,0.308l-0.15,0.442      h-0.154l-0.281-0.931H10.857z"></path></g><g><path d="M12.293,4.432l0.123,0.473c0.027,0.104,0.052,0.2,0.069,0.297h0.006c0.021-0.095,0.052-0.194,0.083-0.295l0.152-0.475      h0.143l0.144,0.466c0.035,0.111,0.062,0.209,0.083,0.304H13.1c0.015-0.095,0.041-0.192,0.071-0.302l0.132-0.468h0.167      l-0.3,0.931h-0.154l-0.143-0.444c-0.033-0.104-0.06-0.196-0.083-0.306h-0.004c-0.023,0.111-0.052,0.208-0.084,0.308l-0.15,0.442      h-0.154L12.12,4.432H12.293z"></path></g><g><path d="M13.728,4.432l0.123,0.473c0.027,0.104,0.052,0.2,0.069,0.297h0.006c0.021-0.095,0.052-0.194,0.083-0.295l0.152-0.475      h0.143l0.144,0.466c0.035,0.111,0.062,0.209,0.083,0.304h0.006c0.015-0.095,0.041-0.192,0.071-0.302l0.132-0.468h0.167      l-0.3,0.931h-0.154l-0.143-0.444c-0.033-0.104-0.06-0.196-0.083-0.306h-0.004c-0.023,0.111-0.052,0.208-0.084,0.308l-0.15,0.442      h-0.154l-0.281-0.931H13.728z"></path></g><g><path d="M14.958,5.263c0-0.071,0.048-0.121,0.115-0.121s0.113,0.05,0.113,0.121c0,0.069-0.044,0.121-0.115,0.121      C15.004,5.384,14.958,5.332,14.958,5.263z"></path></g></g><polygon points="29.233,4.119 29.055,4.296 29.5,4.74 28.404,4.74 28.404,4.99 29.5,4.99 29.055,5.434 29.233,5.611 29.978,4.865       "></polygon><g><polygon points="26.435,4.551 25.957,5.17 25.478,4.551    "></polygon></g><rect x="0.7" y="7.07" fill="none" width="30.6" height="21.6"></rect><path d="M32,4.777c0-1.184-0.945-2.147-2.107-2.147H2.108C0.946,2.63,0,3.593,0,4.777V29.37h32V4.777z M31.3,28.67H0.7V7.07h30.6    V28.67z M0.7,4.777c0-0.798,0.631-1.447,1.408-1.447h27.785c0.776,0,1.408,0.649,1.408,1.447V6.37H0.7V4.777z"></path></g></g><g xmlns="http://www.w3.org/2000/svg" display="none"><g display="inline"><path fill="#fff" d="M7.382,17.126l5.926-3.052v0.881l-4.993,2.503v0.025l4.993,2.504v0.881l-5.926-3.053V17.126z"></path><path fill="#fff" d="M14.135,21.379l3.563-9.259h0.868l-3.576,9.259H14.135z"></path><path fill="#fff" d="M25.295,17.828l-5.926,3.04v-0.881l5.032-2.504v-0.025l-5.032-2.503v-0.881l5.926,3.04V17.828z"></path></g><g display="inline"><rect x="6.802" y="22.57" fill="#fff" width="19.074" height="0.7"></rect></g></g><g xmlns="http://www.w3.org/2000/svg" display="none"><g display="inline"><path fill="#fff" d="M10.857,4.257L10.98,4.73c0.027,0.104,0.052,0.2,0.069,0.297h0.006c0.021-0.095,0.052-0.194,0.083-0.295    l0.152-0.475h0.143l0.144,0.466c0.035,0.111,0.062,0.209,0.083,0.304h0.006c0.015-0.095,0.041-0.192,0.071-0.302l0.132-0.468    h0.167l-0.3,0.931h-0.154L11.44,4.743c-0.033-0.104-0.06-0.196-0.083-0.306h-0.004c-0.023,0.111-0.052,0.208-0.084,0.308    l-0.15,0.442h-0.154l-0.281-0.931H10.857z"></path><path fill="#fff" d="M12.293,4.257l0.123,0.473c0.027,0.104,0.052,0.2,0.069,0.297h0.006c0.021-0.095,0.052-0.194,0.083-0.295    l0.152-0.475h0.143l0.144,0.466c0.035,0.111,0.062,0.209,0.083,0.304H13.1c0.015-0.095,0.041-0.192,0.071-0.302l0.132-0.468h0.167    l-0.3,0.931h-0.154l-0.143-0.444c-0.033-0.104-0.06-0.196-0.083-0.306h-0.004c-0.023,0.111-0.052,0.208-0.084,0.308l-0.15,0.442    h-0.154L12.12,4.257H12.293z"></path><path fill="#fff" d="M13.728,4.257l0.123,0.473c0.027,0.104,0.052,0.2,0.069,0.297h0.006c0.021-0.095,0.052-0.194,0.083-0.295    l0.152-0.475h0.143l0.144,0.466c0.035,0.111,0.062,0.209,0.083,0.304h0.006c0.015-0.095,0.041-0.192,0.071-0.302l0.132-0.468    h0.167l-0.3,0.931h-0.154l-0.143-0.444c-0.033-0.104-0.06-0.196-0.083-0.306h-0.004c-0.023,0.111-0.052,0.208-0.084,0.308    l-0.15,0.442h-0.154l-0.281-0.931H13.728z"></path><path fill="#fff" d="M14.958,5.088c0-0.071,0.048-0.121,0.115-0.121s0.113,0.05,0.113,0.121c0,0.069-0.044,0.121-0.115,0.121    C15.004,5.209,14.958,5.157,14.958,5.088z"></path><polygon fill="#fff" points="26.435,4.376 25.957,4.995 25.478,4.376   "></polygon><path fill="#fff" d="M30.242,2.805H7.031H1.758C0.791,2.805,0,3.614,0,4.602v24.593h32V4.602    C32,3.614,31.209,2.805,30.242,2.805z M7.382,16.664l5.926-3.052v0.881l-4.993,2.503v0.025l4.993,2.504v0.881l-5.926-3.053V16.664    z M2.533,5.178c-0.283,0-0.512-0.229-0.512-0.512c0-0.283,0.229-0.512,0.512-0.512s0.512,0.229,0.512,0.512    C3.045,4.949,2.816,5.178,2.533,5.178z M4.068,5.178c-0.283,0-0.512-0.229-0.512-0.512c0-0.283,0.229-0.512,0.512-0.512    S4.58,4.384,4.58,4.667C4.58,4.949,4.351,5.178,4.068,5.178z M5.603,5.178c-0.283,0-0.512-0.229-0.512-0.512    c0-0.283,0.229-0.512,0.512-0.512c0.283,0,0.512,0.229,0.512,0.512C6.115,4.949,5.886,5.178,5.603,5.178z M25.876,22.808H6.802    v-0.7h19.074V22.808z M14.135,20.917l3.563-9.259h0.868l-3.576,9.259H14.135z M19.37,14.493v-0.881l5.926,3.04v0.715l-5.926,3.04    v-0.881l5.032-2.504v-0.025L19.37,14.493z M26.337,5.565H10.251c-0.494,0-0.898-0.404-0.898-0.898    c0-0.494,0.404-0.899,0.898-0.899h16.086c0.494,0,0.898,0.404,0.898,0.899C27.235,5.161,26.831,5.565,26.337,5.565z M29.233,5.436    l-0.178-0.177L29.5,4.815h-1.096v-0.25H29.5l-0.444-0.444l0.178-0.177l0.745,0.746L29.233,5.436z"></path></g></g><g xmlns="http://www.w3.org/2000/svg" display="none"><path display="inline" d="M10.857,4.257L10.98,4.73c0.027,0.104,0.052,0.2,0.069,0.297h0.006c0.021-0.095,0.052-0.194,0.083-0.295   l0.152-0.475h0.143l0.144,0.466c0.035,0.111,0.062,0.209,0.083,0.304h0.006c0.015-0.095,0.041-0.192,0.071-0.302l0.132-0.468h0.167   l-0.3,0.931h-0.154L11.44,4.743c-0.033-0.104-0.06-0.196-0.083-0.306h-0.004c-0.023,0.111-0.052,0.208-0.084,0.308l-0.15,0.442   h-0.154l-0.281-0.931H10.857z"></path><path display="inline" d="M12.293,4.257l0.123,0.473c0.027,0.104,0.052,0.2,0.069,0.297h0.006c0.021-0.095,0.052-0.194,0.083-0.295   l0.152-0.475h0.143l0.144,0.466c0.035,0.111,0.062,0.209,0.083,0.304H13.1c0.015-0.095,0.041-0.192,0.071-0.302l0.132-0.468h0.167   l-0.3,0.931h-0.154l-0.143-0.444c-0.033-0.104-0.06-0.196-0.083-0.306h-0.004c-0.023,0.111-0.052,0.208-0.084,0.308l-0.15,0.442   h-0.154L12.12,4.257H12.293z"></path><path display="inline" d="M13.728,4.257l0.123,0.473c0.027,0.104,0.052,0.2,0.069,0.297h0.006c0.021-0.095,0.052-0.194,0.083-0.295   l0.152-0.475h0.143l0.144,0.466c0.035,0.111,0.062,0.209,0.083,0.304h0.006c0.015-0.095,0.041-0.192,0.071-0.302l0.132-0.468h0.167   l-0.3,0.931h-0.154l-0.143-0.444c-0.033-0.104-0.06-0.196-0.083-0.306h-0.004c-0.023,0.111-0.052,0.208-0.084,0.308l-0.15,0.442   h-0.154l-0.281-0.931H13.728z"></path><path display="inline" d="M14.958,5.088c0-0.071,0.048-0.121,0.115-0.121s0.113,0.05,0.113,0.121c0,0.069-0.044,0.121-0.115,0.121   C15.004,5.209,14.958,5.157,14.958,5.088z"></path><polygon display="inline" points="26.435,4.376 25.957,4.995 25.478,4.376  "></polygon><path display="inline" d="M30.242,2.805H7.031H1.758C0.791,2.805,0,3.614,0,4.602v24.593h32V4.602   C32,3.614,31.209,2.805,30.242,2.805z M2.533,5.178c-0.283,0-0.512-0.229-0.512-0.512c0-0.283,0.229-0.512,0.512-0.512   s0.512,0.229,0.512,0.512C3.045,4.949,2.816,5.178,2.533,5.178z M4.068,5.178c-0.283,0-0.512-0.229-0.512-0.512   c0-0.283,0.229-0.512,0.512-0.512S4.58,4.384,4.58,4.667C4.58,4.949,4.351,5.178,4.068,5.178z M5.603,5.178   c-0.283,0-0.512-0.229-0.512-0.512c0-0.283,0.229-0.512,0.512-0.512c0.283,0,0.512,0.229,0.512,0.512   C6.115,4.949,5.886,5.178,5.603,5.178z M18.662,23.371h-8.114v-1.014h8.114V23.371z M21.451,20.646h-8.114v-1.014h8.114V20.646z    M10.549,17.597v-1.014h8.114v1.014H10.549z M21.451,14.871h-8.114v-1.014h8.114V14.871z M10.549,12.145v-1.014h8.114v1.014H10.549   z M26.337,5.565H10.251c-0.494,0-0.898-0.404-0.898-0.898c0-0.494,0.404-0.899,0.898-0.899h16.086c0.494,0,0.898,0.404,0.898,0.899   C27.235,5.161,26.831,5.565,26.337,5.565z M29.233,5.436l-0.178-0.177L29.5,4.815h-1.096v-0.25H29.5l-0.444-0.444l0.178-0.177   l0.745,0.746L29.233,5.436z"></path></g></g><g id="SvgjsG1110" featurekey="nameRightFeature-0" transform="matrix(2.1519782171834647,0,0,2.1519782171834647,285.77408637681447,3.412267007274446)" fill="#fff"><path d="M18.380000000000003 20 l-10.84 0 l0 -14.62 l3.18 0 l0 11.88 l7.66 0 l0 2.74 z M22.64 19.26 q-1.8 -1.02 -2.86 -2.77 t-1.06 -3.81 q0 -2.04 1.06 -3.79 t2.86 -2.77 t3.94 -1.02 t3.96 1.02 t2.88 2.77 t1.06 3.79 q0 2.06 -1.06 3.81 t-2.88 2.77 t-3.96 1.02 t-3.94 -1.02 z M24.22 8.63 q-1.08 0.65 -1.72 1.73 t-0.64 2.32 t0.64 2.33 t1.72 1.75 t2.36 0.66 t2.37 -0.66 t1.72 -1.75 t0.63 -2.33 t-0.63 -2.32 t-1.72 -1.73 t-2.37 -0.65 t-2.36 0.65 z M47.37 11.22 q-0.51 0.8 -1.33 1.14 q1 0.34 1.72 1.3 t0.72 2.1 q0 2.26 -1.44 3.25 t-3.68 0.99 l-6.32 0 l0 -14.62 l6.08 0 q4.76 0 4.76 4.06 q0 0.98 -0.51 1.78 z M43.18 11.18 q0.78 0 1.15 -0.48 t0.37 -1.14 q0 -0.58 -0.44 -1.01 t-1.06 -0.43 l-2.98 0 l0 3.06 l2.96 0 z M44.8 16.78 q0.52 -0.48 0.52 -1.18 t-0.52 -1.18 t-1.5 -0.48 l-3.08 0 l0 3.32 l3.14 0 q0.92 0 1.44 -0.48 z M56.86000000000001 4.92 l8.02 15.08 l-3.46 0 l-1.16 -2.24 l-6.82 0 l-1.12 2.24 l-3.48 0 z M58.74000000000001 15.059999999999999 l-1.88 -3.82 l-1.86 3.82 l3.74 0 z M69.7 20 l-3.14 0 l0 -15.08 l10.08 8.92 l0 -8.44 l3.16 0 l0 15.06 l-10.1 -8.78 l0 8.32 z"></path></g></svg>